<svg width="24" height="22" viewBox="0 0 24 22" fill="none" xmlns="http://www.w3.org/2000/svg">
<path d="M12 22C11.1273 21.2855 10.1818 20.7308 9.16364 20.3359C8.14545 19.941 7.09091 19.7436 6 19.7436C5.23636 19.7436 4.48636 19.847 3.75 20.0538C3.01364 20.2607 2.30909 20.5521 1.63636 20.9282C1.25455 21.135 0.886364 21.1256 0.531818 20.9C0.177273 20.6744 0 20.3453 0 19.9128V6.31795C0 6.11111 0.05 5.91368 0.15 5.72564C0.25 5.53761 0.4 5.39658 0.6 5.30256C1.43636 4.85128 2.30909 4.51282 3.21818 4.28718C4.12727 4.06154 5.05455 3.94872 6 3.94872C7.05455 3.94872 8.08636 4.08974 9.09545 4.37179C10.1045 4.65385 11.0727 5.07692 12 5.64103V19.9128C12.9273 19.2923 13.9 18.8269 14.9182 18.5167C15.9364 18.2064 16.9636 18.0513 18 18.0513C18.6545 18.0513 19.3682 18.1171 20.1409 18.2487C20.9136 18.3803 21.6545 18.653 22.3636 19.0667V4.82308C22.5434 4.89359 22.7201 4.96763 22.8939 5.04519C23.0677 5.12276 23.2364 5.20855 23.4 5.30256C23.5818 5.41538 23.7273 5.56278 23.8364 5.74474C23.9455 5.92672 24 6.11779 24 6.31795V19.9128C24 20.3453 23.8227 20.6744 23.4682 20.9C23.1136 21.1256 22.7455 21.135 22.3636 20.9282C21.6909 20.5521 20.9864 20.2607 20.25 20.0538C19.5136 19.847 18.7636 19.7436 18 19.7436C16.9091 19.7436 15.8545 19.941 14.8364 20.3359C13.8182 20.7308 12.8727 21.2855 12 22ZM13.6364 17.2897V7.33333L20.7273 0V10.9154L13.6364 17.2897ZM10.3636 19.0667V6.68462C9.74545 6.32735 9.02727 6.0641 8.20909 5.89487C7.39091 5.72564 6.65455 5.64103 6 5.64103C5.14545 5.64103 4.35 5.73504 3.61364 5.92308C2.87727 6.11111 2.21818 6.35117 1.63636 6.64324V19.0667C2.27273 18.747 2.95909 18.4979 3.69545 18.3192C4.43182 18.1406 5.20455 18.0513 6.01364 18.0513C6.82273 18.0513 7.59091 18.1406 8.31818 18.3192C9.04545 18.4979 9.72727 18.747 10.3636 19.0667Z" fill="url(#paint0_linear_18_5)"/>
<defs>
<linearGradient id="paint0_linear_18_5" x1="24" y1="-66.0002" x2="-2.22124" y2="-65.9122" gradientUnits="userSpaceOnUse">
<stop stop-color="#FD620C"/>
<stop offset="1" stop-color="#F98C28"/>
</linearGradient>
</defs>
</svg>
