<svg width="129" height="29" viewBox="0 0 129 29" fill="none" xmlns="http://www.w3.org/2000/svg">
<path d="M12.5066 17.92V13.12H20.4265V27.24C16.6132 27.8533 13.5199 28.16 11.1466 28.16C6.90655 28.16 3.98655 27.0267 2.38655 24.76C0.813217 22.4933 0.0265503 18.8933 0.0265503 13.96C0.0265503 9.02667 0.853217 5.46667 2.50655 3.28C4.15988 1.09333 6.97322 0 10.9466 0C13.4266 0 16.1066 0.28 18.9866 0.840001L20.4265 1.12L20.2666 5.4C17.0666 5.05333 14.4399 4.88 12.3865 4.88C10.3599 4.88 8.93322 5.12 8.10655 5.6C7.27988 6.08 6.66655 6.97333 6.26655 8.28C5.89322 9.56 5.70655 11.7733 5.70655 14.92C5.70655 18.04 6.09322 20.2267 6.86655 21.48C7.63988 22.7333 9.23988 23.36 11.6666 23.36L14.9866 23.2V17.92H12.5066Z" fill="url(#paint0_linear_40_2)"/>
<path d="M23.3597 27.68L29.4797 0.480001H39.9597L46.0797 27.68H40.5597L39.4797 22.76H29.9597L28.8797 27.68H23.3597ZM33.7597 5.04L30.9997 17.96H38.4397L35.6797 5.04H33.7597Z" fill="url(#paint1_linear_40_2)"/>
<path d="M55.2222 18.56V27.68H49.7022V0.480001H60.2622C66.6622 0.480001 69.8622 3.46667 69.8622 9.44C69.8622 12.9867 68.5288 15.6 65.8622 17.28L69.7422 27.68H63.7022L60.5422 18.56H55.2222ZM60.3422 13.84C61.6488 13.84 62.6222 13.44 63.2622 12.64C63.9022 11.84 64.2222 10.7867 64.2222 9.48C64.2222 8.17333 63.8755 7.13333 63.1822 6.36C62.5155 5.58667 61.5422 5.2 60.2622 5.2H55.2222V13.84H60.3422Z" fill="url(#paint2_linear_40_2)"/>
<path d="M91.7469 27.24C88.9202 27.8533 86.3735 28.16 84.1069 28.16C81.8402 28.16 80.0269 27.88 78.6669 27.32C77.3069 26.76 76.2402 25.8667 75.4669 24.64C74.6935 23.4133 74.1602 21.9733 73.8669 20.32C73.5735 18.6667 73.4269 16.5867 73.4269 14.08C73.4269 8.82667 74.1602 5.17333 75.6269 3.12C77.1202 1.04 79.8535 0 83.8269 0C86.1202 0 88.7735 0.36 91.7869 1.08L91.6269 5.48C88.9869 5.08 86.7869 4.88 85.0269 4.88C83.2935 4.88 82.0535 5.12 81.3069 5.6C80.5602 6.05333 80.0002 6.93333 79.6269 8.24C79.2802 9.54667 79.1069 11.7733 79.1069 14.92C79.1069 18.0667 79.4669 20.2533 80.1869 21.48C80.9335 22.68 82.4002 23.28 84.5869 23.28C86.8002 23.28 89.1469 23.0933 91.6269 22.72L91.7469 27.24Z" fill="url(#paint3_linear_40_2)"/>
<path d="M96.2256 27.68V0.480001H101.746V27.68H96.2256Z" fill="url(#paint4_linear_40_2)"/>
<path d="M105.391 27.68L111.511 0.480001H121.991L128.111 27.68H122.591L121.511 22.76H111.991L110.911 27.68H105.391ZM115.791 5.04L113.031 17.96H120.471L117.711 5.04H115.791Z" fill="url(#paint5_linear_40_2)"/>
<defs>
<linearGradient id="paint0_linear_40_2" x1="58" y1="-4.02685e-06" x2="123.5" y2="-2.5" gradientUnits="userSpaceOnUse">
<stop stop-color="#101010"/>
<stop stop-color="#F98C28"/>
<stop offset="0.197917" stop-color="#FD620C"/>
</linearGradient>
<linearGradient id="paint1_linear_40_2" x1="58" y1="-4.02685e-06" x2="123.5" y2="-2.5" gradientUnits="userSpaceOnUse">
<stop stop-color="#101010"/>
<stop stop-color="#F98C28"/>
<stop offset="0.197917" stop-color="#FD620C"/>
</linearGradient>
<linearGradient id="paint2_linear_40_2" x1="58" y1="-4.02685e-06" x2="123.5" y2="-2.5" gradientUnits="userSpaceOnUse">
<stop stop-color="#101010"/>
<stop stop-color="#F98C28"/>
<stop offset="0.197917" stop-color="#FD620C"/>
</linearGradient>
<linearGradient id="paint3_linear_40_2" x1="58" y1="-4.02685e-06" x2="123.5" y2="-2.5" gradientUnits="userSpaceOnUse">
<stop stop-color="#101010"/>
<stop stop-color="#F98C28"/>
<stop offset="0.197917" stop-color="#FD620C"/>
</linearGradient>
<linearGradient id="paint4_linear_40_2" x1="58" y1="-4.02685e-06" x2="123.5" y2="-2.5" gradientUnits="userSpaceOnUse">
<stop stop-color="#101010"/>
<stop stop-color="#F98C28"/>
<stop offset="0.197917" stop-color="#FD620C"/>
</linearGradient>
<linearGradient id="paint5_linear_40_2" x1="58" y1="-4.02685e-06" x2="123.5" y2="-2.5" gradientUnits="userSpaceOnUse">
<stop stop-color="#101010"/>
<stop stop-color="#F98C28"/>
<stop offset="0.197917" stop-color="#FD620C"/>
</linearGradient>
</defs>
</svg>
