<svg width="29" height="29" viewBox="0 0 29 29" fill="none" xmlns="http://www.w3.org/2000/svg">
<path d="M14.4637 0C13.9562 0 13.5212 0.176268 13.1587 0.528805L10.5125 3.10232L13.8475 6.34566C14.2583 6.20465 14.6692 6.18114 15.08 6.27515C15.4908 6.36916 15.8473 6.56306 16.1494 6.85684C16.4515 7.15062 16.6448 7.49728 16.7294 7.89682C16.814 8.29636 16.7958 8.69591 16.675 9.09545L19.865 12.1978C20.2758 12.0803 20.6867 12.0626 21.0975 12.1449C21.5083 12.2271 21.8708 12.421 22.185 12.7266C22.62 13.1496 22.8375 13.6608 22.8375 14.2601C22.8375 14.8594 22.62 15.3647 22.185 15.776C21.75 16.1873 21.2244 16.393 20.6081 16.393C19.9919 16.393 19.4662 16.1932 19.0312 15.7936C18.7171 15.4646 18.5177 15.0886 18.4331 14.6655C18.3485 14.2425 18.3908 13.8312 18.56 13.4316L15.5512 10.5056V18.1909C15.7687 18.2849 15.9621 18.4142 16.1312 18.5787C16.5662 19.0017 16.7837 19.5129 16.7837 20.1122C16.7837 20.7115 16.5662 21.2227 16.1312 21.6458C15.6962 22.0688 15.1706 22.2803 14.5544 22.2803C13.9381 22.2803 13.4185 22.0688 12.9956 21.6458C12.5727 21.2227 12.3612 20.7115 12.3612 20.1122C12.3612 19.5129 12.5787 19.0017 13.0137 18.5787C13.2071 18.3907 13.4487 18.2379 13.7387 18.1204V10.3646C13.4487 10.2706 13.2071 10.1178 13.0137 9.90628C12.6754 9.60075 12.464 9.23059 12.3794 8.79579C12.2948 8.361 12.3371 7.94383 12.5062 7.54429L9.24375 4.3362L0.54375 12.7971C0.18125 13.1496 0 13.5785 0 14.0838C0 14.5891 0.18125 15.0181 0.54375 15.3706L13.195 27.6741C13.5575 28.0267 13.9985 28.2029 14.5181 28.2029C15.0377 28.2029 15.4787 28.0267 15.8412 27.6741L28.4562 15.4059C28.8187 15.0533 29 14.6244 29 14.1191C29 13.6138 28.8187 13.1849 28.4562 12.8323L15.805 0.528805C15.4425 0.176268 14.9954 0 14.4637 0Z" fill="#E84D31"/>
</svg>
