<svg width="10" height="23" viewBox="0 0 17 33" fill="none" xmlns="http://www.w3.org/2000/svg">
<path d="M16.9564 11.2993L16.2588 14.3756C16.0308 15.3885 14.9343 16.1819 13.7625 16.1819H11.4007V30.3571C11.4007 31.4743 10.4421 32.381 9.17691 32.381H5.73571C4.47048 32.381 3.4412 31.4722 3.4412 30.3561V16.1819H2.29451C1.02928 16.1819 0 15.2742 0 14.157V11.1202C0 10.004 1.02928 9.09528 2.29451 9.09528H3.4412V6.07364C3.4412 2.74741 6.49143 0.0404775 10.2541 0.0121432C10.278 0.0111313 10.2985 0 10.3236 0H14.9126C15.5452 0 15.9601 0.452336 15.9601 1.01092V6.07061C15.9601 6.63021 15.5452 7.08659 14.9126 7.08659H11.4703L11.4691 9.09528H14.9103C15.5555 9.09528 16.1505 9.33714 16.5403 9.7581C16.9313 10.1781 17.0829 10.7407 16.9564 11.2993ZM10.3658 11.1202C10.3498 11.1212 10.3373 11.1283 10.3213 11.1283C9.68756 11.1273 9.17349 10.6739 9.17463 10.1153V10.1082L9.17691 6.07364C9.17691 5.51404 9.68984 5.06171 10.3236 5.06171H13.7648V2.02488H10.368C10.3487 2.02488 10.3327 2.03399 10.3122 2.03399C7.78857 2.03399 5.73571 3.84637 5.73571 6.07364V10.1234C5.73571 10.683 5.22164 11.1364 4.58788 11.1364C4.55711 11.1364 4.53089 11.1222 4.50012 11.1202H2.29451V14.157H4.58788C5.22164 14.157 5.73571 14.6103 5.73571 15.1699C5.73571 15.2226 5.71063 15.2671 5.70151 15.3177V30.3571L9.17691 30.3561V15.1801C9.17691 15.176 9.17463 15.173 9.17463 15.1699C9.17463 14.6103 9.68756 14.157 10.3213 14.157H13.7625C13.8457 14.157 13.9939 14.0507 14.0087 13.9799L14.6573 11.1202H10.3658Z" fill="url(#paint0_linear_22_29)"/>
<defs>
<linearGradient id="paint0_linear_22_29" x1="17" y1="-97.1431" x2="-1.57354" y2="-97.1131" gradientUnits="userSpaceOnUse">
<stop stop-color="#FD620C"/>
<stop offset="1" stop-color="#F98C28"/>
</linearGradient>
</defs>
</svg>
