<svg width="26" height="33" viewBox="0 0 26 33" fill="none" xmlns="http://www.w3.org/2000/svg">
<path d="M1.51637 16.8352C1.13965 16.8352 0.787895 16.5971 0.670298 16.2229C-0.28609 13.2658 -0.42242 8.04102 1.62669 5.67036C1.17087 3.95627 1.42479 1.63714 2.26358 0.394085C2.43946 0.136404 2.72565 -0.0120198 3.0441 0.0013796C5.43142 0.104452 6.98516 1.08982 8.35158 1.99171C10.2966 1.48871 12.1896 1.31555 14.4333 1.43718C14.9859 1.46913 15.5323 1.59179 16.0141 1.70104C16.47 1.80412 16.9372 1.91337 17.2109 1.8876C17.4586 1.86184 17.8999 1.56499 18.2578 1.32071C18.5898 1.09498 18.9405 0.863065 19.3048 0.702272C20.3455 0.250815 21.2821 0.0457007 22.5444 0.000348877C23.0325 -0.0130505 23.4488 0.361102 23.4675 0.850696C23.4862 1.34029 23.1033 1.74639 22.6089 1.75876C21.562 1.79793 20.8596 1.94532 20.0197 2.31329C19.8053 2.41018 19.5389 2.58437 19.259 2.77712C18.7064 3.15024 18.0757 3.57593 17.3722 3.63983C16.8061 3.69137 16.2212 3.56253 15.6031 3.41411C15.1733 3.31722 14.7247 3.21415 14.3282 3.18838C12.1365 3.06572 10.3154 3.25331 8.42859 3.78723C8.18091 3.85835 7.9145 3.81918 7.69387 3.67179L7.4722 3.52336C6.28166 2.74414 5.15668 1.99686 3.51136 1.7969C3.10133 2.83381 3.0493 4.55409 3.45933 5.57244C3.60294 5.92083 3.49783 6.3259 3.21269 6.56503C1.60587 7.91837 1.40398 12.704 2.36037 15.6746C2.51023 16.1384 2.25006 16.6342 1.78175 16.7826C1.69017 16.8218 1.59963 16.8341 1.51533 16.8341L1.51637 16.8352ZM8.28082 25.5324C8.21525 25.5324 8.15073 25.5262 8.08517 25.5128C7.60333 25.4097 7.30465 24.9397 7.40872 24.4625L7.467 24.211C7.73966 22.9865 7.99359 22.0011 8.2933 21.2673C4.64467 20.5138 1.98364 18.7935 0.722332 16.359C0.501707 15.9271 0.670298 15.3921 1.10634 15.1736C1.54239 14.9551 2.08251 15.1221 2.30313 15.554C3.44164 17.7504 6.1214 19.2388 9.85433 19.748C10.2123 19.7995 10.5048 20.0572 10.5963 20.3984C10.6879 20.7457 10.5578 21.1137 10.2644 21.326C10.076 21.494 9.73153 22.196 9.2039 24.5862L9.14562 24.8439C9.05404 25.25 8.6898 25.5334 8.28082 25.5334V25.5324ZM6.64174 31.9806C6.58346 31.9806 6.53143 31.9744 6.47315 31.961C5.99131 31.8641 5.67286 31.4199 5.77069 30.9427C5.93303 30.1243 6.5127 29.7831 6.85716 29.5831C7.09132 29.4481 7.16312 29.3966 7.20163 29.3059C7.40352 28.8802 7.35149 27.7794 7.3057 26.8961C7.28592 26.5219 7.26719 26.1426 7.25991 25.7757C5.19831 26.1302 2.96084 26.2395 1.77654 24.3007C1.54239 23.9142 1.39253 23.5215 1.2562 23.1669C1.1001 22.768 0.970015 22.4196 0.755634 22.1619C0.443429 21.7878 0.501707 21.2343 0.879475 20.9251C1.25724 20.6159 1.81609 20.6674 2.1283 21.0477C2.5248 21.5311 2.73293 22.0723 2.91505 22.5485C3.03161 22.8577 3.14296 23.1473 3.29178 23.3926C3.92868 24.4357 5.32111 24.3718 8.00087 23.8369C8.28082 23.7791 8.567 23.8626 8.77514 24.0492C8.98328 24.243 9.08734 24.5192 9.05508 24.7965C8.98952 25.3572 9.02907 26.0911 9.06133 26.8002C9.12689 28.0432 9.18517 29.2162 8.78867 30.047C8.50248 30.6458 8.04042 30.9169 7.7355 31.0901C7.6512 31.1416 7.52112 31.2127 7.4951 31.2447C7.43682 31.6766 7.06634 31.9796 6.64278 31.9796L6.64174 31.9806ZM19.5722 31.8126C19.2798 31.8126 18.9999 31.6714 18.824 31.4137C18.7522 31.2972 18.6481 31.2272 18.466 31.1045C18.1798 30.9045 17.7895 30.6345 17.4971 30.0738C16.9705 29.0492 17.0548 27.5609 17.1391 25.99C17.1911 25.0232 17.2432 24.0255 17.1391 23.239C17.0486 22.5753 16.8134 22.2794 16.4887 21.8672C16.2805 21.5971 16.0402 21.2941 15.8507 20.8941C15.7269 20.6303 15.7467 20.3273 15.8903 20.0758C16.0402 19.8243 16.3003 19.6635 16.5928 19.6439C19.9292 19.3986 22.5642 17.8401 23.8317 15.3726C24.0524 14.9407 24.5862 14.7665 25.0285 14.986C25.4646 15.2056 25.6405 15.7333 25.4188 16.1714C24.0659 18.8193 21.484 20.6035 18.2183 21.2157C18.5107 21.6414 18.7969 22.1826 18.9083 23.0133C19.0384 23.9606 18.9801 25.0428 18.9208 26.0859C18.8552 27.297 18.7844 28.6689 19.0904 29.275C19.1684 29.4296 19.2663 29.5007 19.4869 29.6553C19.7273 29.8161 20.053 30.0418 20.3194 30.4479C20.5859 30.854 20.4693 31.4013 20.0593 31.6652C19.9094 31.7683 19.7408 31.8136 19.5712 31.8136L19.5722 31.8126ZM24.6258 16.6548C24.5477 16.6548 24.4634 16.6424 24.3854 16.6228C23.9108 16.4878 23.6371 16.0044 23.7745 15.5344C24.7569 12.1134 24.0867 7.66893 22.3696 6.21974C22.0896 5.98164 21.9856 5.6013 22.1094 5.26013C22.5257 4.08098 22.2457 2.3102 21.7712 1.24031C21.5755 0.796068 21.7774 0.273491 22.227 0.0807453C22.6766 -0.112 23.2032 0.0869296 23.3978 0.532202C23.9441 1.7567 24.3021 3.68209 23.9441 5.28693C26.0651 7.60606 26.4813 12.5535 25.4854 16.0188C25.3678 16.4053 25.0171 16.6568 24.6268 16.6568L24.6258 16.6548ZM16.6385 32.999C16.4762 32.999 16.3066 32.9536 16.1577 32.8578C15.9954 32.7547 15.5073 32.4455 14.603 31.054C14.1929 30.4222 13.8943 27.2795 13.7121 21.7002C13.6997 21.2168 14.0826 20.8045 14.5707 20.7921C15.0588 20.7797 15.4751 21.159 15.4875 21.6425C15.6051 25.2953 15.8778 29.4378 16.1255 30.1459C16.7884 31.1643 17.1016 31.3704 17.1141 31.3766C17.5242 31.6405 17.647 32.1816 17.3806 32.5939C17.2182 32.8578 16.932 33 16.6396 33L16.6385 32.999ZM9.89387 32.999C9.60144 32.999 9.31525 32.8578 9.14562 32.5929C8.87921 32.1868 9.00305 31.6394 9.41204 31.3756C9.42453 31.3694 9.73777 31.1632 10.4007 30.1449C10.6484 29.443 10.9148 25.2943 11.0386 21.6414C11.0511 21.158 11.4674 20.7715 11.9555 20.7911C12.4435 20.8034 12.8338 21.2168 12.814 21.6991C12.6319 27.2785 12.3322 30.4283 11.9232 31.053C11.0189 32.4383 10.5308 32.7537 10.3684 32.8567C10.2259 32.9536 10.0562 32.999 9.89387 32.999Z" fill="url(#paint0_linear_23_35)"/>
<defs>
<linearGradient id="paint0_linear_23_35" x1="26" y1="-99.0003" x2="-2.4065" y2="-98.9314" gradientUnits="userSpaceOnUse">
<stop stop-color="#FD620C"/>
<stop offset="1" stop-color="#F98C28"/>
</linearGradient>
</defs>
</svg>
