<svg width="22" height="22" viewBox="0 0 22 22" fill="none" xmlns="http://www.w3.org/2000/svg">
<path d="M10.9982 20.3225C11.3477 20.3225 11.6875 20.3042 12.0175 20.2675C12.3475 20.2308 12.6683 20.1734 12.98 20.0953L11.5775 17.985H7.5075V16.8208C7.5075 16.1806 7.73503 15.6324 8.1901 15.1765C8.64517 14.7205 9.19222 14.4925 9.83125 14.4925H12.155V11H9.845C9.53333 11 9.25833 10.8808 9.02 10.6425C8.78167 10.4042 8.6625 10.1292 8.6625 9.8175V7.48H8.14501C7.64667 7.48 7.21875 7.31042 6.86125 6.97125C6.50375 6.63208 6.325 6.21054 6.325 5.70663C6.325 5.53221 6.3525 5.35792 6.4075 5.18375C6.4625 5.00958 6.53583 4.84917 6.6275 4.7025L8.4425 2.035C6.48083 2.585 4.86292 3.67986 3.58875 5.31957C2.31458 6.95929 1.6775 8.85276 1.6775 11H2.8325V9.8175C2.8325 9.50583 2.94708 9.23542 3.17625 9.00625C3.40542 8.77708 3.67583 8.6625 3.9875 8.6625H6.325C6.63667 8.6625 6.91167 8.77708 7.15 9.00625C7.38833 9.23542 7.5075 9.50583 7.5075 9.8175V11C7.5075 11.3117 7.38833 11.5821 7.15 11.8112C6.91167 12.0404 6.63667 12.155 6.325 12.155V13.3303C6.325 13.9768 6.09669 14.5246 5.64008 14.9737C5.18347 15.4229 4.63458 15.6475 3.99339 15.6475H2.915C3.74 17.0592 4.86134 18.1912 6.27902 19.0437C7.6967 19.8962 9.26975 20.3225 10.9982 20.3225ZM19.855 13.86C20.0017 13.4017 20.1162 12.9347 20.1987 12.4591C20.2812 11.9835 20.3225 11.4934 20.3225 10.9887C20.3225 8.81456 19.6628 6.89625 18.3434 5.23374C17.024 3.57124 15.3554 2.47749 13.3375 1.9525V5.15675C13.9792 5.15675 14.5285 5.38493 14.9854 5.8413C15.4424 6.29767 15.6708 6.84628 15.6708 7.48712V9.8175C16.0403 9.8175 16.3762 9.86792 16.6787 9.96875C16.9812 10.0696 17.2608 10.2483 17.5175 10.505L19.855 13.86ZM11.0073 22C9.49052 22 8.06511 21.7112 6.73106 21.1337C5.39702 20.5562 4.23042 19.7679 3.23125 18.7687C2.23208 17.7696 1.44375 16.6023 0.86625 15.2669C0.28875 13.9315 0 12.5046 0 10.9862C0 9.4679 0.28875 8.04103 0.86625 6.70563C1.44375 5.37021 2.23208 4.2075 3.23125 3.2175C4.23042 2.2275 5.39771 1.44375 6.73313 0.86625C8.06853 0.28875 9.4954 0 11.0137 0C12.5321 0 13.959 0.28875 15.2944 0.86625C16.6298 1.44375 17.7925 2.2275 18.7825 3.2175C19.7725 4.2075 20.5562 5.37167 21.1337 6.71C21.7112 8.04833 22 9.4759 22 10.9927C22 12.5095 21.7112 13.9349 21.1337 15.2689C20.5562 16.603 19.7725 17.7679 18.7825 18.7637C17.7925 19.7595 16.6283 20.5478 15.29 21.1287C13.9517 21.7096 12.5241 22 11.0073 22Z" fill="url(#paint0_linear_15_4)"/>
<defs>
<linearGradient id="paint0_linear_15_4" x1="22" y1="-66.0002" x2="-2.03618" y2="-65.9262" gradientUnits="userSpaceOnUse">
<stop stop-color="#FD620C"/>
<stop offset="1" stop-color="#F98C28"/>
</linearGradient>
</defs>
</svg>
