<svg width="25" height="28" viewBox="0 2 25 28" fill="none" xmlns="http://www.w3.org/2000/svg">
<path d="M0 0V30.0225H25V0H0ZM19.0294 13.5984C19.7941 13.5984 20.4461 13.775 20.9853 14.1282C21.5245 14.4814 21.9804 15.0583 22.3529 15.8589L20.5294 17.2718C20.3333 16.8479 20.1176 16.5418 19.8824 16.3534C19.6471 16.165 19.3627 16.0709 19.0294 16.0709C18.6961 16.0709 18.4265 16.1827 18.2206 16.4064C18.0147 16.6301 17.9118 16.9186 17.9118 17.2718C17.9118 17.6721 18.0196 18.0017 18.2353 18.2607C18.4314 18.4727 18.8039 18.7199 19.3529 19.0025L19.9412 19.285C21.0196 19.8502 21.7843 20.4271 22.2353 21.0157C22.7843 21.7221 23.0588 22.6287 23.0588 23.7354C23.0588 24.9599 22.6863 25.9253 21.9412 26.6317C21.2353 27.3146 20.3039 27.656 19.1471 27.656C18.1078 27.656 17.2157 27.3852 16.4706 26.8436C15.7843 26.3256 15.2549 25.631 14.8824 24.7597L16.7941 23.4529C17.0686 23.9944 17.3725 24.4065 17.7059 24.6891C18.098 24.9952 18.5686 25.1482 19.1176 25.1482C19.5882 25.1482 19.9706 25.0187 20.2647 24.7597C20.5588 24.5007 20.7059 24.1593 20.7059 23.7354C20.7059 23.3116 20.5588 22.9584 20.2647 22.6758C20.049 22.4874 19.6275 22.2284 19 21.8988L18.4118 21.5809C17.4706 21.1099 16.7843 20.5801 16.3529 19.9914C15.8431 19.3086 15.5882 18.4256 15.5882 17.3424C15.5882 16.2592 15.902 15.3644 16.5294 14.658C17.1569 13.9516 17.9902 13.5984 19.0294 13.5984ZM11.2647 13.775H13.6176V23.4175C13.6176 24.8304 13.2843 25.9017 12.6176 26.6317C12.0098 27.3146 11.1667 27.656 10.0882 27.656C9.20588 27.656 8.45098 27.4088 7.82353 26.9143C7.29412 26.4669 6.87255 25.8547 6.55882 25.0776L8.5 23.7001C8.71569 24.1946 8.91176 24.536 9.08824 24.7244C9.32353 25.007 9.62745 25.1482 10 25.1482C10.4118 25.1482 10.7157 25.0305 10.9118 24.795C11.1471 24.5125 11.2647 24.0415 11.2647 23.3822V13.775Z" fill="#EFD81D"/>
</svg>
