<svg width="28" height="32" viewBox="0 0 28 32" fill="none" xmlns="http://www.w3.org/2000/svg">
<path d="M27.2714 31.9937H21.5856C21.1832 31.9937 20.8587 31.6057 20.8587 31.1269V20.206C20.8587 16.46 19.239 16.46 18.7046 16.46C17.2667 16.46 16.6553 17.8141 16.4568 18.3982C16.3632 18.6611 16.3195 19.1076 16.3195 19.7324V31.1331C16.3195 31.613 15.9941 32 15.5927 32H9.90154C9.70913 32 9.52108 31.9082 9.38377 31.7434C9.24645 31.5786 9.16861 31.3553 9.17474 31.1258C9.17474 30.9422 9.2517 12.6285 9.17474 10.755C9.16337 10.5182 9.23508 10.2887 9.37327 10.1176C9.51146 9.94654 9.69863 9.84848 9.90242 9.84848H15.5936C15.9959 9.84848 16.3204 10.2365 16.3204 10.7153V11.2275C17.2789 10.2094 18.6617 9.36758 20.7223 9.36758C25.2782 9.36758 28 13.1261 28 19.4216V31.1248C28 31.6046 27.6746 31.9917 27.2732 31.9917L27.2714 31.9937ZM22.3132 30.259H26.5499V19.4237C26.5499 14.1338 24.4289 11.1044 20.7267 11.1044C18.2533 11.1044 17.0515 12.5763 16.2967 13.9231C16.2084 14.2777 15.9277 14.5406 15.5971 14.5406H15.5586C15.2944 14.5406 15.0513 14.3695 14.9253 14.0941C14.8265 13.8772 14.8038 13.6279 14.8702 13.3973V11.577H10.6441C10.6826 15.1978 10.6441 26.9135 10.6327 30.2517H14.8641V19.7251C14.8641 18.851 14.9411 18.2209 15.1064 17.741C15.7457 15.855 17.09 14.718 18.6984 14.718C20.9899 14.718 22.3071 16.7156 22.3071 20.1987V30.259H22.3132ZM6.75467 31.9937H1.06353C0.661211 31.9937 0.336728 31.6057 0.336728 31.1269V10.7174C0.336728 10.2376 0.662085 9.85057 1.06353 9.85057H6.75467C7.15699 9.85057 7.48148 10.2386 7.48148 10.7174V31.1269C7.48148 31.6067 7.15612 31.9937 6.75467 31.9937ZM1.79034 30.259H6.02699V11.5843H1.79034V30.259ZM3.91129 8.79802H3.87281C1.63029 8.79802 0 6.94536 0 4.39588C0 1.85265 1.65827 0 3.95065 0C6.20366 0 7.81296 1.8005 7.85669 4.37606C7.85669 6.94536 6.19754 8.79802 3.91129 8.79802ZM3.94977 1.73999C2.4568 1.73999 1.45361 2.81132 1.45361 4.4011C1.45361 5.96479 2.44543 7.0622 3.87193 7.0622H3.91041C5.39814 7.0622 6.40045 5.99087 6.40045 4.4011C6.37246 2.7915 5.40951 1.73999 3.94977 1.73999Z" fill="url(#paint0_linear_22_32)"/>
<defs>
<linearGradient id="paint0_linear_22_32" x1="28" y1="-96.0002" x2="-2.59157" y2="-95.9179" gradientUnits="userSpaceOnUse">
<stop stop-color="#FD620C"/>
<stop offset="1" stop-color="#F98C28"/>
</linearGradient>
</defs>
</svg>
